<svg xmlns="http://www.w3.org/2000/svg" aria-hidden="true" style="position:absolute;width:0;height:0;overflow:hidden"><defs><symbol id="icon-aroow-left" viewBox="0 0 32 32"><path fill="none" stroke="currentColor" stroke-width="1.067" d="M2.677 8.308 16 .616l13.323 7.692v15.384L16 31.384 2.677 23.692V8.308z" style="stroke:var(--color1, currentColor)"/><path fill="currentColor" d="M10.29 15.623a.534.534 0 0 0 0 .754l3.394 3.394a.534.534 0 0 0 .754-.754L11.421 16l3.017-3.017a.534.534 0 0 0-.754-.754l-3.394 3.394zm11.043-.156H10.666v1.067h10.667v-1.067z" style="fill:var(--color1, currentColor)"/></symbol><symbol id="icon-aroow-right" viewBox="0 0 32 32"><path fill="none" stroke="currentColor" stroke-width="1.067" d="M2.677 8.308 16 .616l13.323 7.692v15.384L16 31.384 2.677 23.692V8.308z" style="stroke:var(--color1, currentColor)"/><path fill="currentColor" d="M21.71 16.377a.534.534 0 0 0 0-.754l-3.394-3.394a.534.534 0 0 0-.754.754L20.579 16l-3.017 3.017a.534.534 0 0 0 .754.754l3.394-3.394zm-11.043.156h10.667v-1.067H10.667v1.067z" style="fill:var(--color1, currentColor)"/></symbol><symbol id="icon-arrow" viewBox="0 0 32 32">
<path fill="none" stroke="currentColor" style="stroke: var(--color2, currentColor)" stroke-linejoin="miter" stroke-linecap="butt" stroke-miterlimit="4" stroke-width="1.0667" d="M2.677 8.308l13.323-7.693 13.323 7.694v15.381l-13.323 7.694-13.323-7.694v-15.381z"></path>
<path d="M15.622 21.711c0.097 0.097 0.23 0.157 0.378 0.157s0.281-0.060 0.378-0.157v0l3.393-3.394c0.1-0.097 0.163-0.233 0.163-0.384 0-0.295-0.239-0.533-0.533-0.533-0.151 0-0.287 0.062-0.383 0.163l-3.017 3.017-3.017-3.017c-0.097-0.097-0.23-0.157-0.378-0.157-0.295 0-0.534 0.239-0.534 0.534 0 0.147 0.060 0.281 0.156 0.377v0l3.394 3.394zM15.467 10.667v10.667h1.067v-10.667h-1.067z"></path>
</symbol><symbol id="icon-facebook" viewBox="0 0 32 32"><path d="M15 0C6.73 0 0 6.728 0 15c0 8.27 6.73 14.998 15 14.998S30 23.27 30 15 23.27 0 15 0Zm0 29C7.28 29 1 22.717 1 15 1 7.28 7.28 1 15 1s14 6.28 14 14c0 7.718-6.28 14-14 14Z"/><path d="M18.274 6.58h-2.496c-3.179-.032-3.585 1.935-3.585 4.064v1.549H10.79a.416.416 0 0 0-.467.467v2.807a.416.416 0 0 0 .467.467h1.403v7.016a.42.42 0 0 0 .471.468h2.858c.276.032.5-.192.411-.468l.002-7.016h2.339a.416.416 0 0 0 .468-.467V12.66a.416.416 0 0 0-.468-.467h-2.342l.003-1.404c.091-.597.091-.5.646-.467h1.673c.13-.03.269-.013.366-.108.097-.094.153-.223.12-.36V7.048a.416.416 0 0 0-.466-.468Zm-.5 2.754L16.6 9.289c-1.452 0-1.574.789-1.574 1.596l-.004 1.773a.5.5 0 0 0 .5.5h2.284v1.808h-2.282a.5.5 0 0 0-.5.5l-.002 7.017H13.13v-7.016c0-.276-.188-.5-.465-.5h-1.406V13.16h1.406a.5.5 0 0 0 .354-.146c.093-.095.11-.222.11-.355v-2.016c0-2.097.424-3.096 2.65-3.096h1.995v1.787Z"/></symbol><symbol id="icon-instagram" viewBox="0 0 32 32"><path d="M22.918 1H9.083a8.082 8.082 0 0 0-8.082 8.082v13.835a8.082 8.082 0 0 0 8.083 8.082h13.834a8.083 8.083 0 0 0 8.083-8.083V9.081A8.082 8.082 0 0 0 22.918.999h.001z" style="stroke:var(--color3, #fff)"/><path d="M16 23.242c3.999 0 7.241-3.242 7.241-7.242s-3.242-7.242-7.242-7.242a7.242 7.242 0 0 0 0 14.484z" style="stroke:var(--color3, #fff)"/><path fill="#fff" d="M24.524 8.221a1.282 1.282 0 1 0 .001-2.565 1.282 1.282 0 0 0-.001 2.565z" style="fill:var(--color3, #fff)"/></symbol><symbol id="icon-youtube" viewBox="0 0 45 32"><path d="M43.045 5.691a5.378 5.378 0 0 0-3.798-3.792C36.759.94 12.66.47 5.668 1.926c-.91.245-1.74.724-2.407 1.389S2.115 4.809 1.87 5.718c-1.123 4.918-1.208 15.551.028 20.58a5.378 5.378 0 0 0 3.798 3.792c4.927 1.132 28.349 1.291 33.578 0 .91-.244 1.74-.724 2.407-1.389s1.146-1.494 1.391-2.403c1.197-5.358 1.282-15.332-.028-20.608v0z" style="stroke:var(--color3, #fff)"/><path d="M29.56 15.995 18.33 9.566v12.858l11.23-6.429z" style="stroke:var(--color3, #fff)"/></symbol></defs></svg>